# xmcd
#
# Track frame offsets: 
#        150
#        21434
#        38863
#        52220
#        69058
#        84390
#        104899
#        121448
#        137198
#        150686
#        169191
#        187100
#        207294
#        219989
#
# Disc length: 3300 seconds
#
# Revision: 0
# Processed by: cddbd v1.5.2PL0 Copyright (c) Steve Scherf et al.
# Submitted via: ExactAudioCopy v0.90b4
#
DISCID=d10ce20e
DTITLE=Greg Crowe - My Kinda People Disc 2
DYEAR=2008
DGENRE=Country
TTITLE0=She's my woman
TTITLE1=Country Radio
TTITLE2=Jacob
TTITLE3=Kris Kristofferson
TTITLE4=Paul Casey loves the rodeo
TTITLE5=Sister Mary Crowe
TTITLE6=Tex Morton can do anything
TTITLE7=Bervan
TTITLE8=If you want some gain
TTITLE9=We knocked the bastard off
TTITLE10=Johnny Cash, he is the man
TTITLE11=Go organic
TTITLE12=Jock the stipe
TTITLE13=LA Tony
EXTD=
EXTT0=
EXTT1=
EXTT2=
EXTT3=
EXTT4=
EXTT5=
EXTT6=
EXTT7=
EXTT8=
EXTT9=
EXTT10=
EXTT11=
EXTT12=
EXTT13=
PLAYORDER=
